<?xml version="1.0" encoding="UTF-8" standalone="no"?>
<svg
   xmlns:dc="http://purl.org/dc/elements/1.1/"
   xmlns:cc="http://creativecommons.org/ns#"
   xmlns:rdf="http://www.w3.org/1999/02/22-rdf-syntax-ns#"
   xmlns:svg="http://www.w3.org/2000/svg"
   xmlns="http://www.w3.org/2000/svg"
   xmlns:xlink="http://www.w3.org/1999/xlink"
   xmlns:sodipodi="http://sodipodi.sourceforge.net/DTD/sodipodi-0.dtd"
   xmlns:inkscape="http://www.inkscape.org/namespaces/inkscape"
   width="41mm"
   height="55mm"
   viewBox="0 0 41 55"
   version="1.1"
   id="svg8"
   sodipodi:docname="question_mark.svg"
   inkscape:version="1.0.1 (c497b03c, 2020-09-10)">
  <metadata
     id="metadata23">
    <rdf:RDF>
      <cc:Work
         rdf:about="">
        <dc:format>image/svg+xml</dc:format>
        <dc:type
           rdf:resource="http://purl.org/dc/dcmitype/StillImage" />
        <dc:title></dc:title>
      </cc:Work>
    </rdf:RDF>
  </metadata>
  <sodipodi:namedview
     pagecolor="#ffffff"
     bordercolor="#666666"
     borderopacity="1"
     objecttolerance="10"
     gridtolerance="10"
     guidetolerance="10"
     inkscape:pageopacity="0"
     inkscape:pageshadow="2"
     inkscape:window-width="1271"
     inkscape:window-height="848"
     id="namedview21"
     showgrid="false"
     inkscape:zoom="1"
     inkscape:cx="396.85039"
     inkscape:cy="109.11296"
     inkscape:window-x="0"
     inkscape:window-y="23"
     inkscape:window-maximized="0"
     inkscape:current-layer="svg8" />
  <defs
     id="defs2">
    <linearGradient
       inkscape:collect="always"
       id="linearGradient2776-2">
      <stop
         style="stop-color:#920062;stop-opacity:1"
         offset="0"
         id="stop2772" />
      <stop
         style="stop-color:#349400;stop-opacity:0.85490197"
         offset="0.48515967"
         id="stop2787" />
      <stop
         style="stop-color:#c6c300;stop-opacity:0.78542513"
         offset="1"
         id="stop2774" />
    </linearGradient>
    <rect
       x="69.547623"
       y="105.07738"
       width="88.446426"
       height="154.21429"
       id="rect12" />
    <linearGradient
       inkscape:collect="always"
       xlink:href="#linearGradient2776-2"
       id="linearGradient2780"
       x1="73.198639"
       y1="158.67531"
       x2="85.570297"
       y2="132.6394"
       gradientUnits="userSpaceOnUse" />
    <linearGradient
       inkscape:collect="always"
       xlink:href="#linearGradient2776-2"
       id="linearGradient25"
       gradientUnits="userSpaceOnUse"
       x1="73.198639"
       y1="158.67531"
       x2="85.570297"
       y2="132.6394" />
  </defs>
  <g
     id="layer1"
     transform="matrix(0.33812914,0,0,0.33812914,-10.218196,-9.3039293)">
    <g
       aria-label="?"
       transform="matrix(5.3966451,0,0,3.8106045,-334.82555,-441.07122)"
       id="text10"
       style="line-height:1.25;shape-inside:url(#rect12);fill:url(#linearGradient2780);fill-opacity:1;stroke:none">
      <path
         d="m 71.680475,150.95795 q 0,-2.3876 0.7112,-4.1148 0.7112,-1.7272 1.5748,-3.048 0.8636,-1.3716 1.5748,-2.4384 0.7112,-1.0668 0.7112,-2.1336 0,-0.9652 -0.4064,-1.524 -0.4064,-0.6096 -1.0668,-0.9144 -0.6604,-0.3556 -1.5748,-0.4572 -0.8636,-0.1016 -1.8288,-0.1016 h -1.0668 v -9.4488 q 0.9144,-0.1524 1.5748,-0.254 0.7112,-0.1016 1.27,-0.1524 0.5588,-0.0508 1.0668,-0.0508 0.5588,-0.0508 1.27,-0.0508 2.8956,0 5.2324,0.762 2.3368,0.7112 3.9624,2.0828 1.6764,1.3716 2.5908,3.302 0.9144,1.9304 0.9144,4.2672 0,2.2352 -0.9144,4.064 -0.8636,1.778 -1.9304,3.4544 -1.0668,1.6764 -1.9812,3.302 -0.8636,1.6256 -0.8636,3.4544 z m 6.7564,-3.2004 q 0,-0.9144 0.6604,-2.1336 0.6604,-1.2192 1.4224,-2.5908 0.8128,-1.4224 1.4732,-2.8956 0.6604,-1.4732 0.6604,-2.8956 0,-2.7432 -1.7272,-4.4196 -1.7272,-1.6764 -5.3848,-1.6764 h -1.3208 v 1.2192 h 1.3208 q 1.1684,0 2.2352,0.3048 1.0668,0.254 1.8796,0.8636 0.8128,0.5588 1.27,1.524 0.508,0.9144 0.508,2.1844 0,1.4732 -0.6604,2.9464 -0.6604,1.4224 -1.4732,2.794 -0.762,1.3716 -1.4224,2.5908 -0.6604,1.2192 -0.6604,2.1844 z m -6.7564,4.7244 h 10.8712 v 8.4836 h -10.8712 z m 7.8232,4.826 v -1.1684 h -4.7752 v 1.1684 z"
         style="fill:url(#linearGradient25);fill-opacity:1"
         id="path2807" />
    </g>
  </g>
</svg>
